<?xml version="1.0" standalone="no"?>
<!DOCTYPE svg PUBLIC "-//W3C//DTD SVG 20010904//EN"
 "http://www.w3.org/TR/2001/REC-SVG-20010904/DTD/svg10.dtd">
<svg version="1.0" xmlns="http://www.w3.org/2000/svg"
 width="576.000000pt" height="576.000000pt" viewBox="0 0 576.000000 576.000000"
 preserveAspectRatio="xMidYMid meet">
<metadata>
Created by potrace 1.11, written by Peter Selinger 2001-2013
</metadata>
<g transform="translate(0.000000,576.000000) scale(0.100000,-0.100000)"
fill="#000000" stroke="none">
<path d="M2675 5283 c-824 -55 -1509 -438 -1942 -1085 -132 -198 -253 -470
-312 -701 -149 -581 -88 -1185 173 -1702 127 -250 258 -426 467 -630 423 -410
950 -638 1588 -685 81 -6 148 -7 153 -2 4 4 7 264 6 578 l-3 569 -88 7 c-271
23 -510 139 -707 344 -167 174 -268 368 -322 617 -18 84 -22 134 -22 282 0
200 17 306 75 472 151 433 541 744 979 781 l85 7 0 575 0 575 -40 1 c-22 0
-62 -1 -90 -3z"/>
<path d="M3000 5181 c0 -136 -4 -137 140 27 25 28 62 28 96 -1 38 -33 38 -83
0 -111 -63 -47 -206 -191 -220 -221 -12 -24 -16 -64 -16 -144 0 -99 2 -111 18
-111 9 0 79 62 155 138 104 104 140 147 148 175 21 75 112 101 171 48 28 -25
33 -36 33 -76 0 -40 -5 -51 -33 -76 -18 -16 -40 -29 -50 -29 -22 0 -404 -383
-426 -427 -11 -22 -16 -60 -16 -123 0 -80 2 -90 18 -90 20 0 81 61 101 102 29
58 111 55 140 -6 12 -25 11 -33 -3 -62 -8 -19 -21 -34 -27 -34 -19 0 -201
-183 -215 -217 -8 -18 -14 -60 -14 -93 0 -51 3 -60 18 -60 23 0 302 280 302
304 0 10 16 34 35 53 32 32 39 35 78 30 77 -10 117 -82 85 -152 -12 -26 -54
-55 -80 -55 -23 0 -405 -391 -422 -432 -13 -30 -16 -80 -16 -248 l0 -210 33
-16 33 -16 178 103 c109 63 187 115 202 134 36 47 167 545 158 601 -16 112
110 177 180 93 35 -42 35 -97 0 -138 -19 -23 -39 -79 -75 -214 -54 -201 -56
-217 -33 -217 26 0 103 50 125 81 24 35 79 228 79 280 0 73 70 114 127 74 34
-24 36 -59 9 -118 -28 -60 -42 -122 -29 -130 20 -13 160 75 188 117 8 12 46
140 84 284 56 209 69 272 65 310 -7 60 20 107 68 120 105 28 181 -85 112 -167
-19 -23 -39 -79 -75 -214 -54 -202 -56 -217 -33 -217 37 0 183 94 210 135 20
30 74 230 74 273 0 45 13 67 49 82 38 15 80 -3 99 -43 12 -24 11 -33 -12 -81
-14 -29 -28 -72 -32 -95 -5 -34 -4 -41 10 -41 17 0 235 121 236 131 0 3 -28
44 -62 91 -431 591 -1083 937 -1870 993 l-98 7 0 -101z"/>
<path d="M4995 3993 c-106 -62 -128 -80 -120 -94 7 -10 95 -31 144 -34 76 -3
109 -78 56 -130 -27 -28 -61 -32 -91 -11 -35 25 -254 79 -295 73 -39 -5 -219
-102 -219 -117 0 -16 30 -26 213 -74 135 -36 188 -46 217 -41 107 18 175 -101
101 -176 -42 -42 -120 -38 -156 7 -17 22 -544 157 -588 151 -47 -6 -171 -76
-175 -99 -2 -12 11 -20 54 -33 31 -9 62 -14 70 -11 20 8 73 -14 84 -34 40 -76
-47 -154 -116 -106 -35 25 -250 78 -287 71 -47 -9 -132 -57 -132 -75 0 -23
365 -120 426 -113 79 9 131 -32 131 -102 0 -43 -16 -72 -52 -90 -43 -22 -84
-19 -120 11 -44 38 -521 167 -595 161 -42 -3 -79 -20 -227 -107 l-178 -103 0
-38 0 -37 180 -102 c127 -72 193 -104 223 -107 57 -6 563 130 590 159 57 60
150 35 177 -48 24 -71 -53 -149 -124 -127 -25 8 -66 0 -225 -43 -106 -29 -196
-56 -199 -59 -24 -23 83 -85 146 -85 55 0 241 48 265 69 28 24 86 19 108 -8
47 -58 6 -130 -75 -132 -58 -1 -120 -22 -124 -41 -2 -11 20 -29 71 -57 59 -32
85 -41 123 -41 29 0 151 28 300 68 198 53 258 74 283 95 86 72 210 -14 167
-116 -21 -51 -56 -71 -114 -64 -37 4 -86 -5 -231 -44 -202 -55 -201 -54 -201
-74 0 -22 159 -107 213 -113 52 -5 248 40 277 63 44 36 103 23 124 -26 7 -18
11 -40 8 -51 -8 -31 -51 -58 -96 -59 -57 -1 -120 -22 -124 -40 -2 -11 33 -36
113 -82 l116 -66 64 132 c104 213 170 420 211 657 25 146 30 532 10 690 -23
171 -59 327 -112 483 -44 128 -152 369 -170 379 -5 3 -58 -24 -119 -59z"/>
<path d="M3028 2692 l-28 -17 0 -205 c0 -179 3 -210 19 -245 26 -54 398 -425
442 -439 86 -29 98 -143 19 -189 -57 -34 -121 -10 -150 56 -26 57 -291 322
-314 314 -19 -8 -22 -72 -5 -132 12 -44 144 -188 211 -231 62 -40 64 -112 4
-140 -29 -14 -37 -15 -62 -3 -16 8 -34 25 -40 37 -16 33 -85 102 -101 102 -15
0 -16 -1 -13 -110 1 -47 6 -94 12 -105 17 -34 412 -425 429 -425 24 0 65 -35
79 -69 25 -61 -31 -141 -98 -141 -40 0 -83 29 -99 68 -16 40 -288 322 -310
322 -19 0 -18 -222 1 -258 15 -29 174 -184 219 -215 53 -36 19 -137 -46 -137
-27 0 -77 35 -77 54 0 15 -82 96 -98 96 -9 0 -12 -28 -12 -101 l0 -100 83 6
c537 41 982 204 1382 504 116 88 300 262 390 371 66 80 168 220 163 224 -19
14 -222 126 -228 126 -5 0 -11 -4 -14 -8 -8 -13 19 -107 38 -133 53 -76 -45
-171 -112 -109 -23 21 -38 63 -28 78 3 4 -10 63 -28 131 -39 142 -50 157 -167
225 -82 48 -94 52 -104 36 -3 -5 18 -96 46 -202 38 -140 58 -200 75 -218 32
-35 40 -80 20 -118 -17 -34 -61 -62 -96 -62 -64 0 -122 77 -100 134 7 19 -8
87 -64 295 -41 149 -81 282 -90 296 -27 40 -170 125 -186 109 -12 -12 11 -103
34 -135 53 -76 -45 -171 -112 -109 -23 22 -38 63 -28 78 3 5 -10 64 -29 132
-25 92 -41 130 -62 152 -46 49 -133 86 -133 57 0 -6 23 -97 52 -202 34 -127
57 -196 69 -205 10 -6 23 -28 29 -47 19 -57 -6 -106 -68 -132 -30 -12 -37 -12
-70 4 -50 25 -78 74 -65 117 8 27 -1 72 -62 297 -76 280 -80 292 -117 325 -25
23 -352 214 -365 214 -4 0 -20 -8 -35 -18z"/>
</g>
</svg>
